Fly_normalized_Motion_pl08
version=1
nRows=18
nColumns=43
inDegrees=yes
endheader
time		pelvis_tilt		pelvis_list		pelvis_rotation		pelvis_tx		pelvis_ty		pelvis_tz		hip_flexion_r		hip_adduction_r		hip_rotation_r		knee_angle_r		ankle_angle_r		subtalar_angle_r		mtp_angle_r		hip_flexion_l		hip_adduction_l		hip_rotation_l		knee_angle_l		ankle_angle_l		subtalar_angle_l		mtp_angle_l		lumbar_extension		lumbar_bending		lumbar_rotation		neck_flexion		neck_lateral_bending		neck_rotation		arm_flex_r		arm_add_r		arm_rot_r		elbow_flex_r		pro_sup_r		wrist_flex_r		wrist_dev_r		hand_finger_flex_r		arm_flex_l		arm_add_l		arm_rot_l		elbow_flex_l		pro_sup_l		wrist_flex_l		wrist_dev_l		hand_finger_flex_l		
1.713864		-1.902479		7.879472		91.140255		-0.011680		1.392488		0.770553		24.220828		-5.817129		-10.587362		-27.387970		-26.533392		-3.740976		10.349865		21.421675		-1.135798		-15.700005		-29.519711		-25.552182		-15.947723		21.662837		-42.155339		-2.843518		-4.918481		-29.006511		0.471629		2.146913		-47.746074		-32.484504		-16.338601		80.390829		92.337356		-20.972165		-6.046930		54.049266		-50.329845		-28.328123		-27.998006		82.630873		111.544499		-13.896864		7.374254		90.000210		
1.718182		-1.869308		8.193952		91.110653		-0.011341		1.378376		0.759447		23.211536		-5.691354		-10.844851		-25.974269		-26.570105		-3.885476		10.538333		20.543677		-1.190564		-15.904935		-28.126151		-25.590684		-15.579128		22.178808		-41.711853		-2.976033		-4.966871		-30.107012		0.603180		2.292214		-49.978684		-31.488327		-17.419451		79.449710		92.083383		-20.600611		-5.853017		53.775952		-52.538853		-27.325371		-28.527656		81.712157		110.585770		-14.651641		7.178886		90.000210		
1.722500		-1.821016		8.528050		91.110758		-0.011160		1.364119		0.748324		22.137422		-5.567208		-11.182250		-24.499351		-26.599263		-4.002620		10.777013		19.619287		-1.230549		-16.119589		-26.680867		-25.582420		-15.247941		22.835540		-41.278661		-3.059746		-4.954776		-31.203783		0.723669		2.389580		-52.213994		-30.523569		-18.474755		78.573621		91.773877		-20.328498		-5.536456		53.424795		-54.685677		-26.401361		-28.898499		80.932208		109.433765		-15.777385		6.888355		90.000210		
1.726818		-1.750436		8.954668		91.146191		-0.010971		1.349848		0.737047		20.912081		-5.436845		-11.688032		-22.982806		-26.691488		-4.090459		11.051225		18.578900		-1.293452		-16.319775		-25.230976		-25.581031		-14.911481		23.685048		-40.921676		-3.098820		-4.925908		-32.352997		0.852479		2.447235		-54.443209		-29.504118		-19.522604		77.823904		91.208338		-20.240671		-5.089682		53.051482		-56.791530		-25.600667		-29.042551		80.243999		107.935261		-17.347374		6.444982		90.000210		
1.731136		-1.681600		9.318836		91.196980		-0.010872		1.335394		0.725586		19.707234		-5.313954		-12.388865		-21.408409		-26.806307		-4.208417		11.213171		17.554422		-1.338300		-16.594513		-23.701865		-25.512050		-14.583069		24.367911		-40.466897		-3.131746		-4.857847		-33.616146		1.069473		2.530191		-56.591084		-28.462758		-20.497654		77.048741		90.448068		-20.336247		-4.713069		52.774138		-58.795503		-24.904943		-29.084573		79.570361		106.712795		-18.448364		6.056458		90.000210		
1.735455		-1.639284		9.476747		91.188662		-0.010632		1.320082		0.714533		18.905472		-5.179013		-12.797019		-20.101790		-26.828049		-4.278444		11.296588		16.899705		-1.375090		-16.685625		-22.420988		-25.425645		-14.399427		24.758635		-39.846725		-3.229462		-4.858272		-34.661724		1.128100		2.581878		-58.728050		-27.443335		-21.512143		76.519431		89.906636		-20.531736		-4.558888		52.589001		-60.850660		-23.917044		-29.571171		79.190116		106.079606		-19.044367		5.896092		90.000210		
1.739773		-1.550426		9.899901		91.196743		-0.010488		1.305428		0.702991		17.636707		-4.999918		-13.692320		-18.517258		-27.073741		-4.383998		11.381186		15.807324		-1.459296		-16.997271		-20.940472		-25.294181		-13.925896		25.350322		-39.481752		-3.258271		-4.780067		-35.857618		1.312628		2.702570		-60.728938		-26.377047		-22.507565		75.938208		88.864450		-20.663485		-4.336268		52.189013		-62.704793		-23.220935		-29.660315		78.604115		105.500884		-19.461934		5.735986		90.000210		
1.744091		-1.527161		9.970006		91.133796		-0.009876		1.289688		0.691992		16.985078		-4.823661		-14.127283		-17.303354		-27.073808		-4.444767		11.412539		15.253008		-1.505936		-17.062470		-19.707425		-25.169401		-13.766258		25.564827		-38.808320		-3.444890		-4.829872		-36.806375		1.349084		2.787058		-62.635424		-25.369649		-23.432107		75.631730		88.416113		-20.827879		-4.296547		52.002039		-64.608899		-22.259965		-30.184249		78.216485		105.408363		-19.584438		5.789245		90.000210		
1.748409		-1.394320		10.804135		91.198891		-0.009684		1.275377		0.680581		15.207454		-4.573534		-15.178837		-15.652143		-27.245266		-4.165715		11.756473		13.719577		-1.657728		-17.352669		-18.249884		-24.971129		-12.933787		26.638987		-38.961365		-3.382329		-4.789074		-37.641924		1.375967		2.840228		-64.551248		-24.379594		-24.401610		75.455744		87.449444		-20.611508		-3.979037		51.058359		-66.255412		-21.409234		-30.651117		77.953539		105.824170		-19.505656		5.999722		90.000210		
1.752727		-1.421945		10.887256		91.167971		-0.009190		1.259597		0.669517		14.522817		-4.451978		-15.670794		-14.472234		-27.223072		-4.075344		11.905889		13.143698		-1.641860		-17.410913		-17.035197		-24.941808		-12.777076		26.948606		-38.299737		-3.579534		-4.831565		-38.733429		1.410382		2.973544		-66.229801		-23.321282		-25.349137		75.259488		87.312863		-20.587755		-3.883824		50.803337		-67.804489		-20.542836		-31.155017		77.556634		106.084410		-19.517391		6.140310		90.000210		
1.757045		-1.379842		11.463501		91.227326		-0.009095		1.244532		0.658547		13.162211		-4.289414		-16.523264		-13.081810		-27.256072		-3.541794		12.429002		12.002448		-1.677638		-17.487441		-15.754041		-24.947779		-12.259207		27.800915		-38.242377		-3.597336		-4.846397		-39.383657		1.421186		3.008806		-67.843497		-22.304483		-26.414445		75.241506		87.389212		-20.037572		-3.517569		50.200452		-69.160250		-19.715576		-31.662624		77.415506		106.849260		-19.487940		6.351603		90.000210		
1.761364		-1.352306		12.053069		91.296638		-0.008795		1.229416		0.647642		11.813434		-4.118737		-17.416106		-11.777247		-27.375093		-2.885811		13.238899		10.888929		-1.726804		-17.471369		-14.571980		-25.036546		-11.762596		28.812182		-38.227876		-3.653225		-4.933298		-40.009872		1.474463		3.123808		-69.206147		-21.265840		-27.560352		75.288279		87.844206		-19.164929		-3.076967		49.618137		-70.395252		-18.949121		-32.097549		77.239035		107.369786		-19.720053		6.380918		90.000210		
1.765682		-1.377405		12.081184		91.239743		-0.008366		1.212963		0.637418		11.374810		-3.983493		-17.495516		-10.948836		-27.392077		-2.739979		13.387281		10.594074		-1.736027		-17.205935		-13.776131		-25.044687		-11.613657		28.974181		-37.676109		-3.847974		-4.950050		-40.574996		1.532222		3.221278		-70.466216		-20.370650		-28.398208		75.360149		87.839205		-19.105171		-3.062263		49.551716		-71.496180		-18.118831		-32.699024		77.194402		107.340113		-19.904218		6.360254		90.000210		
1.770000		-1.322024		13.282016		91.586593		-0.008686		1.198683		0.626472		9.274307		-3.858855		-18.743030		-9.673604		-27.965438		-1.437072		16.923702		8.848084		-1.793137		-17.021411		-12.708547		-25.194857		-10.727370		32.118132		-38.394453		-3.631394		-5.196310		-41.080723		1.538758		3.382804		-71.427163		-19.198215		-30.143316		75.498189		89.684579		-16.237522		-2.220777		47.237192		-72.368724		-17.562566		-32.920435		77.024228		107.462500		-20.744266		6.060604		90.000210		
1.774318		-1.353655		13.322148		91.476982		-0.008002		1.182062		0.616821		8.961986		-3.738056		-18.698518		-9.135612		-28.230844		-1.356605		17.013056		8.727783		-1.860234		-16.634811		-12.336980		-25.361794		-10.582523		32.209372		-37.998452		-3.882022		-5.173951		-41.377388		1.652199		3.594454		-72.187586		-18.489963		-30.770545		75.552943		89.605742		-16.170215		-2.095996		47.263596		-73.057980		-16.932628		-33.464156		76.955238		107.471405		-20.876991		6.033964		90.000210		
1.778636		-1.381055		13.747683		91.620254		-0.007845		1.166074		0.607291		8.184819		-3.671294		-18.761979		-8.660135		-28.632885		-1.136544		17.438265		8.236607		-1.893432		-15.931915		-12.074359		-25.416283		-10.257337		32.559698		-38.078315		-3.937198		-5.349238		-41.608193		1.798934		3.956060		-72.635070		-17.814612		-31.576522		75.613188		90.035638		-15.598001		-1.441394		47.328746		-73.549370		-16.445912		-33.895069		76.844596		107.657334		-20.994167		5.937676		90.000210		
1.782955		-1.411809		14.259211		91.782202		-0.007626		1.150181		0.598060		7.453635		-3.646566		-18.798573		-8.543944		-28.935546		-0.898856		17.944764		7.780491		-1.960391		-15.259765		-12.107454		-25.442935		-9.954749		32.951572		-38.318584		-3.986982		-5.542883		-41.732508		1.876945		4.167293		-72.838308		-17.268089		-32.225542		75.659779		90.509466		-15.052192		-0.858132		47.306112		-73.817775		-16.113766		-34.248011		76.665478		107.807492		-21.073655		5.878135		90.000210		
1.787273		-1.517519		14.604816		91.845898		-0.007496		1.133924		0.589322		7.152471		-3.757397		-18.428312		-8.944736		-29.040020		-0.760686		18.114779		7.652126		-1.965166		-14.581127		-12.500701		-25.382003		-9.755013		33.109432		-38.468850		-4.141215		-5.615953		-41.776326		1.970204		4.243449		-72.845835		-16.861211		-32.580676		75.562984		90.580664		-15.084594		-0.737217		47.215305		-73.819696		-15.994217		-34.475651		76.449465		107.774354		-21.124951		5.916631		90.000210		
